<?xml version="1.0" encoding="utf-8"?>
<!-- Generator: Adobe Illustrator 20.1.0, SVG Export Plug-In . SVG Version: 6.00 Build 0)  -->
<svg version="1.1" id="artwork" xmlns="http://www.w3.org/2000/svg" xmlns:xlink="http://www.w3.org/1999/xlink" x="0px" y="0px"
	 viewBox="0 0 986.5 424.8" enable-background="new 0 0 986.5 424.8" xml:space="preserve">
<g>
	<g>
		<g>
			<g>
				<g>
					<path fill="#294885" d="M224.8,202.8c-0.2-0.7-0.6-2.8-0.4-3.3c0.2-0.6,0.6-1.7,0.9-2.6c1.6-4.8,0.9-9.8,0.4-10.9
						c-0.1-0.2-0.3-0.3-0.5-0.3c-2.3-0.4-4.2,1.1-6.6,3.9c-0.9,1.1-2,2-2.2,0.4c-0.2-1,0.6-3.1-0.3-3c-2.2,0.2-3.6,1.5-4.9,3.1
						c-1,1.3-1,1.9-2.1,2c-2.2,0.1-3.2,0.2-5,0.6c-1.7,0.4-3.2,1-4.2,1.7c-1.3,0.8-2.2,2-5.3,2c-4.8,0-11,0.2-13.3,0.6
						c-2.4,0.5-2.8,2-1.5,4.2c1.5,2.5,2,8,5.1,8.8c0.8,1.7,1.4,3.1,2.2,3c0.3-0.1,0.6-0.9,0.8-1.7c0.4-1.7,2.1-1.8,3.2-1.8
						c2.8-0.1,4.9,0,6.7,1.1c1.3,0.7,1.9,2,1.7,2.5c-0.4,0.9-1.3-0.3-6.1,0.6c-2.7,0.5-4.3,2-7.7,2c-5.1,0-7.6-3.5-8.5-6.6
						c-0.5-1.6-0.8-3-2.6-1.3c-2.3,2.2-2.5,6.4-0.1,8.9c1.6,1.7,3.9,2.6,6.6,2.8c0.8,0.1,2.5,0.1,3.9,0c0,0-0.4,1.1,0.2,2
						c0.6,0.9,2.3,1.7,5.1,0.8c4-1.2,7.4-2.3,10.2-0.2c0.5,0.4,1.1,1.1,1.1,1.5c0,0.8-3,3.2-11.4,5.4c-10.3,2.8-12.8,9.7-11.7,13.5
						c0.1,0.3,0.3,0.7,0.6,0.7s1.9-0.9,2.8-1.1c1.8-0.3,1,1,0.8,2.6c-0.8,5.7,7.4,13,14.6,18c4,2.8,6.1,3.7,7.1,3.7s3.2-0.8,7.1-3.7
						c11.2-8.3,18.7-19.9,17.5-26.1c-0.7-3.5-2.5-5.7-1.6-6.2c1-0.6,3.2,1,3.7,0.7c1.1-0.7,1.6-7.2-0.4-14
						C228.3,210.7,226.1,208.1,224.8,202.8z M203.7,200.7c-1,0.1-2.1-0.4-1.9-0.7c0.1-0.1,0.4-0.5,0.2-1c-0.3-0.6-1.3-0.7-1.9-0.2
						c0.5-1.2,2.2-1.9,3.6-1.9c2,0,2.4,1.1,2.3,2C205.8,199.8,204.9,200.5,203.7,200.7z"/>
				</g>
				<g>
					<path fill="#255C9E" d="M139.6,267.5c-22,1.4-37.6-17.1-37.6-35.3c0-6.9,1-10.6,2.8-14.4c1.6-3.3,3.4-5.5,4.4-5.5
						c1.1,0,1.4,1.5,1.5,2.5c4.3,22.3,20,35.2,30.7,35.4c3.1,0.1,7-0.7,7.3-2.2c0.5-2.2-3.3-6.8-3.3-15.6c0-3.5,1.6-10,11.3-10.3
						c8.6-0.3,12.8,7.7,12.8,14.9C169.8,251.7,158.8,266.3,139.6,267.5z"/>
				</g>
				<g>
					<path fill="#3979B5" d="M110.8,199.3c1.8-13,9.1-22.7,17.2-27.3c13-7.4,25.9-4.6,34.9-2.6c1.3,0.3,2.4,0.1,2.8-0.7
						c0.3-0.7,0.1-1.4-1-2.6c-4.2-4.5-14-14.2-15.2-15.2c-3-2.5-7.9-3.9-11.7-3.9c-22,0-35.8,16.7-35.8,35.3
						c0,4.9,1.4,11.2,2.9,14.7c1.4,3.3,2.9,6.2,4.1,6.2C110.5,203.2,110.6,201.2,110.8,199.3z"/>
					<path fill="#3979B5" d="M237,163.4c-0.6-0.5-0.8-1.4-0.6-2.8c0.9-9.3,0-18.5-1.9-22.8c-2.4-5.5-8.1-13.6-12.6-18.3
						c-5.8-6.1-7.9-7.8-10.6-9.8c-0.7-0.5-2.1-1.3-2.1-2c0-0.8,1.1-1.5,2.5-2.2c2.5-1.2,6.2-2.8,12.9-3.3c8-0.7,19.4,1,28.1,12.1
						c4.9,6.2,5.5,13.7,5.5,18.8c0,6.1-1,11.5-3.9,14.7c-4.3,4.7-13.4,13.8-14.6,14.8C239.2,163.1,237.8,164.1,237,163.4z"/>
					<path fill="#255C9E" d="M171.2,163.4c0.6-0.5,0.8-1.4,0.6-2.8c-0.9-9.3,0-18.5,1.9-22.8c2.4-5.5,8.1-13.6,12.6-18.3
						c5.8-6.1,7.9-7.8,10.6-9.8c0.7-0.5,2.1-1.3,2.1-2c0-0.8-1.1-1.5-2.5-2.2c-2.5-1.2-6.2-2.8-12.9-3.3c-8-0.7-19.4,1-28.1,12.1
						c-4.9,6.2-5.5,13.7-5.5,18.8c0,6.1,1,11.5,3.9,14.7c4.3,4.7,13.4,13.8,14.6,14.8C169,163.1,170.4,164.1,171.2,163.4z"/>
				</g>
				<g>
					<path fill="#F9B200" d="M146.6,172.2c9.8,0,22,3.4,26.3,6.7c1.4,1,1.8,2.6-0.1,4.5c-2.5,2.5-7.5,7.5-9.5,9.5
						c-1.8,1.8-2.5,2.9-2.5,6.6c0,5.6,0,12.2,0,14.6c0,1.8-0.7,2.5-3.3,2.8c-0.7,0.1-2,0.2-3.1,0.3c-3.5,0.3-8.1,1.6-11.4,6.7
						c-4.2,6.5-1.6,15-0.5,18.2c0.8,2.4,0.7,3.8-2.9,3.1c-9.9-2-25.2-20.2-24.3-40.4C116.3,183.9,130.1,172.2,146.6,172.2z"/>
					<path fill="#3979B5" d="M268.6,267.5c22,1.4,37.6-17.1,37.6-35.3c0-6.9-1-10.6-2.8-14.4c-1.6-3.3-3.4-5.5-4.4-5.5
						c-1.1,0-1.4,1.5-1.5,2.5c-4.3,22.3-20,35.2-30.7,35.4c-3.1,0.1-7-0.7-7.3-2.2c-0.5-2.2,3.3-6.8,3.3-15.6
						c0-3.5-1.6-10-11.3-10.3c-8.6-0.3-12.8,7.7-12.8,14.9C238.4,251.7,249.4,266.3,268.6,267.5z"/>
					<path fill="#255C9E" d="M297.4,199.3c-1.8-13-9.1-22.7-17.2-27.3c-13-7.4-25.9-4.6-34.9-2.6c-1.3,0.3-2.4,0.1-2.8-0.7
						c-0.3-0.7-0.1-1.4,1-2.6c4.2-4.5,14-14.2,15.2-15.2c3-2.5,7.9-3.9,11.7-3.9c22,0,35.8,16.7,35.8,35.3c0,4.9-1.4,11.2-2.9,14.7
						c-1.4,3.3-2.9,6.2-4.1,6.2C297.7,203.2,297.6,201.2,297.4,199.3z"/>
					<path fill="#F9B200" d="M261.6,172.2c-9.8,0-22,3.4-26.3,6.7c-1.4,1-1.8,2.6,0.1,4.5c2.5,2.5,7.5,7.5,9.5,9.5
						c1.8,1.8,2.5,2.9,2.5,6.6c0,5.6,0,12.2,0,14.6c0,1.8,0.7,2.5,3.3,2.8c0.7,0.1,2,0.2,3.1,0.3c3.5,0.3,8.1,1.6,11.4,6.7
						c4.2,6.5,1.6,15,0.5,18.2c-0.8,2.4-0.7,3.8,2.9,3.1c9.9-2,25.2-20.2,24.3-40.4C291.9,183.9,278.1,172.2,261.6,172.2z"/>
					<path fill="#F9B200" d="M221.3,274.3c4.9-3.7,7.6-6.2,11.7-10.4c1.9-1.9,4.1-2.2,6.4,0c3.2,3.1,7.1,5.6,12.8,6
						c2.3,0.2,3.5-0.5,5.1,0.2c0.8,0.4,1.6,1.5,1.7,3.4c0.2,7.5-3.4,16.3-14.3,18.2c-7.1,1.3-14.2-0.9-17.7-4.2
						c-2.4-2.3-5.1-4.8-6.6-6.9C218.7,278.6,218.8,276.1,221.3,274.3z"/>
					<path fill="#F9B200" d="M187,274.3c-4.9-3.7-7.6-6.2-11.7-10.4c-1.9-1.9-4.1-2.2-6.4,0c-3.2,3.1-7.1,5.6-12.8,6
						c-2.3,0.2-3.5-0.5-5.1,0.2c-0.8,0.4-1.6,1.5-1.7,3.4c-0.2,7.5,3.4,16.3,14.3,18.2c7.1,1.3,14.2-0.9,17.7-4.2
						c2.4-2.3,5.1-4.8,6.6-6.9C189.5,278.6,189.4,276.1,187,274.3z"/>
				</g>
				<g>
					<path fill="#F49E00" d="M177.5,142.5c0.9-4.7,6.8-13.6,12.6-19.6c5.9-6.1,11-10.9,14.1-10.9s8.2,4.8,14.1,10.9
						c5.7,6,11.6,14.9,12.6,19.6c0.9,4.7,2.2,14.5-1.2,28.7c-1,4-3.2,4.4-5.7,4.4c-1.1,0-38.4,0-39.5,0c-2.5,0-4.7-0.4-5.7-4.4
						C175.2,157,176.5,147.2,177.5,142.5z"/>
					<path fill="#F49E00" d="M204.1,282.9c2.8,0,5-1.7,6.9-2c1.6-0.2,2.7,0.3,4.1,1.8c2.1,2.1,5.2,5.5,7.3,8
						c1.5,1.8,3.5,4.8,0.7,11.9c-3.4,8.7-15.5,20.1-19.1,20.1s-15.7-11.4-19.1-20.1c-2.8-7.1-0.7-10.1,0.7-11.9c2-2.5,5.1-5.9,7.3-8
						c1.5-1.5,2.5-2,4.1-1.8C199.1,281.2,201.3,282.9,204.1,282.9z"/>
				</g>
			</g>
			<g>
				<g>
					<path fill="#294885" d="M401.2,174.1c-15.4,0-17.8,6.1-17.8,9.8c0,17.5,44.7,12.5,44.7,46c0,22.3-19.2,32.9-43.9,32.9
						c-21.7,0-27.1-10.7-27.1-20.1c0-1.8,0-3.2,0.5-5c0.5-1.5,1.5-2.3,3.7-1.2c7.9,3.8,14.9,5.3,22.1,5.3c11.3,0,20.1-3.2,20.1-11
						c0-17.7-44.7-14-44.7-46.8c0-20.7,14.8-31,43.9-31c4.9,0,12.7,0.6,18,2c1.4,0.3,2,1.4,1.8,2.6L420,174c-0.3,1.8-1.2,2-2.9,1.7
						C411.7,174.6,405.5,174.1,401.2,174.1z"/>
					<path fill="#294885" d="M618.1,153.8c15.3,0,18.9,5.2,22.1,14l27.4,77c2.9,7.9,5.2,11.4,6.7,13.6c0.5,0.6,0.5,1.5-0.2,2
						c-2,1.5-5.8,3.2-12,3.2c-10.5,0-16.8-3.8-19.8-12.8l-3.4-10.1c-0.5-1.5-1.2-2-2.7-2h-40.1c-1.4,0-2,0.6-2.4,2l-6.3,18.4
						c-0.5,1.2-1.2,2.1-3.1,2.1H564c-1.8,0-3-1.7-2.4-3.5l29.4-83.1c-8.1-1.2-11.7-6.3-12.7-17.5c-0.2-1.8,1.1-2.6,2.9-2.6
						C594,154.6,605.4,153.8,618.1,153.8z M632.3,215.7l-12-38.3c-0.8-2.4-1.8-3.5-3.8-3.5h-2l-13.5,42c-0.3,1.1,0.2,1.7,1.4,1.7
						H631C632.3,217.6,632.6,217,632.3,215.7z"/>
					<path fill="#294885" d="M681.3,157.2c-0.2-1.8,1.1-2.6,2.9-2.6c8.1-0.2,14.9-0.8,21-0.8c7.5,0,12.7,4.1,12.7,12.7v53.4
						c0,14.3,7.3,21.8,20.3,21.8s20.3-7.5,20.3-21.8v-63c0-1.2,1.1-2.3,2.3-2.3h19.4c1.2,0,2.3,1.1,2.3,2.3v68
						c0,24.2-16.3,37.8-44.2,37.8c-29.1,0-44.2-12.4-44.2-37.8v-50.2C685.9,173.5,682.2,168.5,681.3,157.2z"/>
					<path fill="#294885" d="M856.2,177.3v50.5c0,11.3,2.4,14,8.8,14.9c1.7,0.3,4.6,0.3,6.3,0.2c2.3-0.3,3,1.1,2.6,3.8
						c-1.2,7.5-8.4,16.2-20.9,16.2c-14.8,0-20.7-7.8-20.7-27.8v-57.8c0-0.9-0.6-1.5-1.5-1.5h-24.4c-1.2,0-2.3-1.1-2.3-2.3v-16.6
						c0-1.2,1.1-2.3,2.3-2.3h75.8c1.2,0,2.3,1.1,2.3,2.3v16.6c0,1.2-1.1,2.3-2.3,2.3h-24.4C856.8,175.8,856.2,176.4,856.2,177.3z"/>
				</g>
				<path fill="#294885" d="M470,153.8c7.2,0,12.5,5.3,12.5,12.5v36.4l33.4-45.1c1.4-2,3.5-3,6.4-3h18.8c2.7,0,4.1,2,2.4,4.3
					l-34.3,45.3c-0.5,0.6-0.5,1.2,0,1.8c13.7,17.7,32,43.6,39.2,50.3c1.4,1.2,0.9,2.3,0,3c-2.3,1.8-6.6,4.3-12.3,4.3
					c-11.4,0-17.5-4.7-23.9-13.9l-29.6-42.1V259c0,1.2-1.1,2.3-2.3,2.3h-19.4c-1.2,0-2.3-1.1-2.3-2.3v-84.3
					c-8.1-1.2-11.7-6.3-12.7-17.5c-0.2-1.8,1.1-2.6,2.9-2.6C456.3,154.6,462.6,153.8,470,153.8z"/>
			</g>
		</g>
	</g>
	<rect x="51" y="51" fill="none" width="884.4" height="322.7"/>
	<rect y="0" fill="none" width="986.5" height="424.8"/>
</g>
</svg>
