<svg xmlns="http://www.w3.org/2000/svg" width="32.01" height="44.02" viewBox="0 0 32.01 44.02">
  <defs>
    <style>
      .cls-1 {
        fill: #5a2591;
      }
    </style>
  </defs>
  <title>GenVypravy_Logo</title>
  <g id="Vrstva_2" data-name="Vrstva 2">
    <g id="Vrstva_1-2" data-name="Vrstva 1">
      <g id="Kresba_11" data-name="Kresba 11">
        <g>
          <path class="cls-1" d="M15.51,1.93A11.87,11.87,0,0,0,14,3.33a8.56,8.56,0,0,0-1.95,3,10.44,10.44,0,0,0,0,4.48.69.69,0,0,0,.69.61h6.43a.69.69,0,0,0,.69-.61,10.44,10.44,0,0,0,0-4.48,8.42,8.42,0,0,0-1.95-3,17.19,17.19,0,0,0-1.5-1.4.8.8,0,0,0-1,0"/>
          <path class="cls-1" d="M7.07,11.22c-3.46,0-4.76,3.06-4.76,5.16,0,2.64,1.86,5.1,3.2,5.68.42.19.67.08.51-.42A3.42,3.42,0,0,1,6.23,19a2.6,2.6,0,0,1,2.33-1.21c.41,0,.55-.15.55-.56v-2a1.17,1.17,0,0,1,.44-1.1L11,12.7c.26-.27.15-.48-.07-.6a9.28,9.28,0,0,0-3.89-.88"/>
          <path class="cls-1" d="M21,12.11c-.22.13-.33.33-.06.6l1.48,1.48a1.15,1.15,0,0,1,.44,1.09v2c0,.41.15.54.54.57A2.59,2.59,0,0,1,25.77,19a3.23,3.23,0,0,1,.2,2.63c-.14.5.1.61.52.42a6.81,6.81,0,0,0,3.2-5.67c0-2.11-1.3-5.16-4.77-5.16a9,9,0,0,0-3.89.87"/>
          <path class="cls-1" d="M19.26,15.8a1.63,1.63,0,0,1-.06-.52l.14-.4a3,3,0,0,0,.06-1.71s0-.05-.08-.05c-.36-.06-.65.17-1,.61-.14.17-.31.31-.35.06s.1-.48,0-.47a1.09,1.09,0,0,0-.77.49c-.16.2-.16.3-.33.31a3.7,3.7,0,0,0-.79.1,1.87,1.87,0,0,0-.65.26,1.22,1.22,0,0,1-.84.32,18.46,18.46,0,0,0-2.08.09c-.38.08-.44.31-.24.66s.32,1.25.8,1.38c.13.27.22.49.35.47s.09-.14.12-.27.33-.28.51-.28A1.91,1.91,0,0,1,15,17c.2.11.29.32.26.4s-.2-.05-.95.09a5.09,5.09,0,0,1-1.21.31,1.33,1.33,0,0,1-1.33-1c-.08-.25-.13-.47-.41-.2a1,1,0,0,0,0,1.39,1.51,1.51,0,0,0,1,.44,3.06,3.06,0,0,0,.61,0,.39.39,0,0,0,0,.31c.09.14.36.27.8.13.63-.19,1.16-.36,1.6,0a.43.43,0,0,1,.17.23c0,.13-.47.51-1.79.85-1.61.44-2,1.52-1.83,2.12,0,0,.05.11.09.11s.3-.14.44-.18c.29,0,.16.16.13.41-.13.9,1.16,2,2.29,2.83a2.66,2.66,0,0,0,1.11.58,2.49,2.49,0,0,0,1.12-.58c1.75-1.31,2.93-3.13,2.74-4.1-.11-.55-.39-.89-.25-1s.5.16.58.11a3.27,3.27,0,0,0-.06-2.2,21.27,21.27,0,0,1-.93-2.24m-3.32-.34c-.16,0-.33-.07-.3-.11a.18.18,0,0,0,0-.16.21.21,0,0,0-.3,0,.64.64,0,0,1,.57-.3c.31,0,.37.17.36.31a.36.36,0,0,1-.36.29"/>
          <path class="cls-1" d="M5.9,25.93A5.6,5.6,0,0,1,0,20.4a4.75,4.75,0,0,1,.44-2.26c.25-.52.53-.86.69-.86s.22.23.23.39c.68,3.5,3.14,5.52,4.82,5.55.49,0,1.1-.11,1.15-.35a12.68,12.68,0,0,1-.52-2.44c0-.55.25-1.57,1.77-1.62a2.11,2.11,0,0,1,2,2.34A4.75,4.75,0,0,1,5.9,25.93"/>
          <path class="cls-1" d="M1.38,15.25A5.79,5.79,0,0,1,4.08,11a7.27,7.27,0,0,1,5.47-.41c.21,0,.38,0,.44-.11s0-.22-.16-.41c-.65-.7-2.19-2.22-2.38-2.38a3.12,3.12,0,0,0-1.83-.61A5.44,5.44,0,0,0,0,12.59a6.91,6.91,0,0,0,.45,2.3c.22.52.46,1,.65,1s.23-.31.28-.61"/>
          <path class="cls-1" d="M21.18,9.62c-.1-.08-.13-.22-.1-.44a8.37,8.37,0,0,0-.3-3.57,11.8,11.8,0,0,0-2-2.88A10.83,10.83,0,0,0,17.14,1.2C17,1.12,16.81,1,16.81.88s.18-.23.4-.34a5.15,5.15,0,0,1,2-.52,4.88,4.88,0,0,1,4.41,1.9,4.64,4.64,0,0,1,.86,3,3.5,3.5,0,0,1-.61,2.3c-.68.74-2.1,2.17-2.29,2.33s-.3.21-.42.12"/>
          <path class="cls-1" d="M10.84,9.62c.09-.08.12-.22.09-.44a8.37,8.37,0,0,1,.3-3.57,11.84,11.84,0,0,1,2-2.88A11.44,11.44,0,0,1,14.87,1.2c.11-.08.33-.21.33-.32S15,.65,14.81.54a5.21,5.21,0,0,0-2-.52,4.87,4.87,0,0,0-4.4,1.9,4.67,4.67,0,0,0-.85,3,3.5,3.5,0,0,0,.61,2.3c.68.74,2.1,2.17,2.29,2.33s.28.21.41.12"/>
          <path class="cls-1" d="M26.12,25.93A5.59,5.59,0,0,0,32,20.4a4.63,4.63,0,0,0-.44-2.26c-.25-.52-.53-.86-.69-.86s-.22.23-.23.39c-.68,3.5-3.14,5.52-4.82,5.55-.48,0-1.09-.11-1.14-.35s.52-1.06.52-2.44c0-.55-.25-1.57-1.78-1.62a2.1,2.1,0,0,0-2,2.34,4.74,4.74,0,0,0,4.69,4.78"/>
          <path class="cls-1" d="M30.63,15.25A5.78,5.78,0,0,0,27.94,11a7.29,7.29,0,0,0-5.48-.41c-.2,0-.38,0-.44-.11s0-.22.16-.41c.66-.7,2.2-2.22,2.38-2.38a3.12,3.12,0,0,1,1.84-.61A5.44,5.44,0,0,1,32,12.59a6.91,6.91,0,0,1-.45,2.3c-.22.52-.46,1-.64,1s-.24-.31-.29-.61"/>
          <path class="cls-1" d="M18.7,27a13.72,13.72,0,0,0,1.83-1.63.64.64,0,0,1,1,0,3,3,0,0,0,2,.94c.36,0,.55-.08.8,0a.6.6,0,0,1,.27.53,2.65,2.65,0,0,1-2.24,2.86,3.4,3.4,0,0,1-2.78-.66,8.43,8.43,0,0,1-1-1.08.63.63,0,0,1,.14-1"/>
          <path class="cls-1" d="M13.32,27a13.81,13.81,0,0,1-1.84-1.63.63.63,0,0,0-1,0,3.05,3.05,0,0,1-2,.94c-.36,0-.55-.08-.8,0a.6.6,0,0,0-.27.53,2.66,2.66,0,0,0,2.25,2.86,3.38,3.38,0,0,0,2.77-.66,9.34,9.34,0,0,0,1-1.08.64.64,0,0,0-.14-1"/>
          <path class="cls-1" d="M16,28.36a4.94,4.94,0,0,0,1.09-.31.69.69,0,0,1,.64.28c.33.33.82.87,1.15,1.26s.54.75.11,1.86c-.54,1.37-2.44,3.16-3,3.16s-2.46-1.79-3-3.16c-.44-1.11-.11-1.58.11-1.86a15.5,15.5,0,0,1,1.15-1.26.7.7,0,0,1,.64-.28,5.5,5.5,0,0,0,1.11.31"/>
          <path class="cls-1" d="M4.75,39.33c-.8,0-.94.31-.94.52,0,.92,2.34.66,2.34,2.41,0,1.16-1,1.73-2.31,1.73-1.13,0-1.42-.57-1.42-1.05a.8.8,0,0,1,0-.27c0-.08.08-.13.19-.06a2.53,2.53,0,0,0,1.16.28c.59,0,1-.17,1-.58,0-.93-2.34-.74-2.34-2.45,0-1.08.77-1.61,2.31-1.61a4,4,0,0,1,.94.11.1.1,0,0,1,.09.14l-.12.84c0,.1-.07.11-.16.1a2.48,2.48,0,0,0-.82-.11"/>
          <path class="cls-1" d="M8.36,38.26a.64.64,0,0,1,.66.66v1.91l1.76-2.36a.36.36,0,0,1,.33-.16h1c.14,0,.22.11.13.22l-1.8,2.37s0,.06,0,.09c.72.93,1.67,2.29,2.05,2.64.08.06,0,.12,0,.15a1.05,1.05,0,0,1-.64.22,1.4,1.4,0,0,1-1.26-.72L9,41.07v2.7a.13.13,0,0,1-.13.12h-1a.13.13,0,0,1-.12-.12V39.36c-.42-.06-.61-.33-.66-.93,0-.09.06-.14.16-.14.39,0,.72,0,1.11,0"/>
          <path class="cls-1" d="M16.11,38.26c.8,0,1,.27,1.16.74l1.44,4a3.16,3.16,0,0,0,.35.71s0,.07,0,.11a1.11,1.11,0,0,1-.63.17,1,1,0,0,1-1-.68l-.17-.53c0-.08-.07-.11-.14-.11H15a.11.11,0,0,0-.12.11l-.33,1a.15.15,0,0,1-.16.11H13.29a.13.13,0,0,1-.13-.18l1.54-4.37c-.43-.06-.61-.33-.66-.92,0-.1.06-.14.16-.14.65,0,1.25,0,1.91,0m.74,3.25-.63-2c0-.12-.1-.19-.21-.19h-.1l-.71,2.2c0,.06,0,.09.08.09h1.5c.07,0,.1,0,.07-.09"/>
          <path class="cls-1" d="M19.42,38.43c0-.09.06-.14.16-.14.42,0,.78,0,1.09,0a.6.6,0,0,1,.66.66v2.8c0,.76.38,1.15,1.07,1.15a1,1,0,0,0,1.07-1.15V38.42a.14.14,0,0,1,.12-.13h1a.15.15,0,0,1,.13.13V42c0,1.27-.85,2-2.33,2s-2.32-.65-2.32-2V39.36c-.42-.06-.62-.33-.67-.93"/>
          <path class="cls-1" d="M28.58,39.49v2.65c0,.59.12.73.47.78a1.77,1.77,0,0,0,.33,0c.12,0,.16.06.14.2a1.07,1.07,0,0,1-1.1.85c-.77,0-1.08-.41-1.08-1.46v-3a.07.07,0,0,0-.08-.08H26a.13.13,0,0,1-.12-.12v-.88a.14.14,0,0,1,.12-.13h4a.14.14,0,0,1,.12.13v.86a.14.14,0,0,1-.12.13H28.69c-.08,0-.11,0-.11.08"/>
        </g>
      </g>
    </g>
  </g>
</svg>
